<svg width="1791" height="419" viewBox="0 0 1791 419" fill="none" xmlns="http://www.w3.org/2000/svg">
<g opacity="0.4">
<path opacity="0.05" fill-rule="evenodd" clip-rule="evenodd" d="M0 137.774C37.6644 102.015 63.5069 46.0677 134.562 46.0677C238.99 46.0677 223.742 126.038 314.61 126.038C405.477 126.038 428.324 252.212 521.19 252.212C614.057 252.212 642.486 -1.91425 744.829 1.63996C847.171 5.19418 871.81 150.917 936.248 150.917C1000.69 150.917 1044.28 236.218 1116.3 237.995C1188.31 239.772 1203.48 72.7243 1296.34 72.7243C1339.26 72.7243 1326.48 128.967 1380.52 128.222C1434.56 127.477 1455.73 237.995 1499.13 237.995C1573.05 237.995 1612 118.652 1679.81 118.799C1747.63 118.946 1791 12.3026 1791 12.3026V449.471L0 461.196C0 461.196 0 219.336 0 137.774Z" fill="#3BBDC4"/>
<path opacity="0.4" d="M3 136.238C40.2511 100.567 65.281 45.9159 135.585 45.9159C239.948 45.9159 224.71 125.613 315.521 125.613C406.333 125.613 429.165 251.357 521.975 251.357C614.784 251.357 643.195 -1.90225 745.475 1.63984C847.754 5.18193 872.377 150.408 936.775 150.408C1001.17 150.408 1044.74 235.418 1116.71 237.189C1188.69 238.96 1203.84 72.4816 1296.65 72.4816C1339.54 72.4816 1326.77 128.532 1380.78 127.79C1434.78 127.047 1455.94 237.189 1499.31 237.189C1573.18 237.189 1612.11 118.253 1679.88 118.399C1747.65 118.546 1791 12.2661 1791 12.2661" stroke="#3BBDC4" stroke-width="2" stroke-linecap="round" stroke-linejoin="round"/>
<path opacity="0.05" fill-rule="evenodd" clip-rule="evenodd" d="M0 213.226C11.3199 218.05 13.8369 223.002 26.5333 226.577C37.666 229.712 49.4343 231.787 60.7827 231.787C128.876 231.787 109.734 162.623 214.162 162.623C318.59 162.623 301.343 192.772 363.886 192.772C426.429 192.772 443.486 61.5386 536.352 61.5386C629.219 61.5386 642.486 139.569 744.829 143.116C847.171 146.663 871.81 205.186 936.248 205.186C1000.69 205.186 1044.28 134.249 1116.3 136.022C1188.31 137.796 1237.79 211.911 1339.93 210.506C1390.28 209.813 1403.13 144.196 1507.09 144.196C1611.05 144.196 1626.11 59.7651 1681.08 59.7651C1736.04 59.7651 1791 134.249 1791 134.249V446.371H0C0 446.371 0 300.064 0 213.226Z" fill="#4592FF"/>
<path opacity="0.4" d="M3 214.832C23.7091 222.194 34.0436 231.97 61.8511 231.97C129.903 231.97 110.772 162.733 215.136 162.733C319.499 162.733 302.263 192.913 364.767 192.913C427.271 192.913 444.318 61.5404 537.127 61.5404C629.936 61.5404 643.195 139.654 745.475 143.205C847.754 146.755 872.377 205.34 936.775 205.34C1001.17 205.34 1044.74 134.328 1116.71 136.103C1188.69 137.879 1238.14 212.073 1340.21 210.666C1390.53 209.973 1403.37 144.285 1507.27 144.285C1611.16 144.285 1626.22 59.7651 1681.14 59.7651C1736.07 59.7651 1791 134.328 1791 134.328" stroke="#4592FF" stroke-width="2" stroke-linecap="round" stroke-linejoin="round"/>
</g>
</svg>
