<svg width="19" height="17" viewBox="0 0 19 17" fill="none" xmlns="http://www.w3.org/2000/svg">
<g clip-path="url(#clip0_2335_12891)">
<path d="M11.2352 4.13127L1.19475 4.13127C1.15017 4.13225 1.10584 4.12443 1.06429 4.10828C1.02273 4.09212 0.984766 4.06793 0.952561 4.0371C0.920356 4.00626 0.894542 3.96938 0.876593 3.92857C0.858644 3.88775 0.848911 3.8438 0.847953 3.79923L0.847953 2.13903C0.848911 2.09446 0.858644 2.05051 0.876592 2.00969C0.894542 1.96888 0.920356 1.932 0.952561 1.90117C0.984766 1.87033 1.02273 1.84614 1.06429 1.82999C1.10584 1.81383 1.15017 1.80602 1.19475 1.807L11.2352 1.80699C11.2798 1.80601 11.3241 1.81383 11.3657 1.82998C11.4073 1.84614 11.4452 1.87033 11.4774 1.90117C11.5096 1.932 11.5354 1.96888 11.5534 2.00969C11.5713 2.05051 11.5811 2.09446 11.582 2.13903L11.582 3.79923C11.5811 3.8438 11.5713 3.88775 11.5534 3.92857C11.5354 3.96938 11.5096 4.00626 11.4774 4.03709C11.4452 4.06793 11.4073 4.09212 11.3657 4.10828C11.3241 4.12443 11.2798 4.13225 11.2352 4.13127Z" fill="#223770"/>
<path d="M1.19475 12.8675L11.2352 12.8675C11.2798 12.8666 11.3241 12.8744 11.3657 12.8905C11.4073 12.9067 11.4452 12.9309 11.4774 12.9617C11.5096 12.9925 11.5354 13.0294 11.5534 13.0702C11.5713 13.1111 11.5811 13.155 11.582 13.1996L11.582 14.8598C11.5811 14.9043 11.5713 14.9483 11.5534 14.9891C11.5354 15.0299 11.5096 15.0668 11.4774 15.0976C11.4452 15.1285 11.4073 15.1527 11.3657 15.1688C11.3241 15.185 11.2798 15.1928 11.2352 15.1918L1.19475 15.1918C1.15017 15.1928 1.10584 15.185 1.06429 15.1688C1.02273 15.1527 0.984766 15.1285 0.952561 15.0976C0.920356 15.0668 0.894542 15.0299 0.876593 14.9891C0.858644 14.9483 0.848911 14.9044 0.847953 14.8598L0.847953 13.1996C0.848911 13.155 0.858644 13.1111 0.876592 13.0702C0.894542 13.0294 0.920356 12.9925 0.952561 12.9617C0.984766 12.9309 1.02273 12.9067 1.06429 12.8905C1.10584 12.8744 1.15017 12.8666 1.19475 12.8675Z" fill="#223770"/>
<path d="M18.4928 8.78709L14.4714 12.4469C14.4172 12.4903 14.3518 12.5176 14.2828 12.5254C14.2137 12.5333 14.1439 12.5216 14.0812 12.4915C14.0186 12.4614 13.9657 12.4143 13.9287 12.3555C13.8916 12.2967 13.872 12.2286 13.8719 12.1591L13.8719 9.66515L1.18251 9.66515C1.09427 9.66515 1.00963 9.63023 0.947063 9.56801C0.884502 9.5058 0.849109 9.42134 0.848621 9.33311L0.848621 7.67292C0.849109 7.58469 0.884502 7.50024 0.947063 7.43802C1.00963 7.3758 1.09427 7.34088 1.18251 7.34088L13.8719 7.34088L13.8719 4.83952C13.872 4.77003 13.8916 4.70197 13.9287 4.64317C13.9657 4.58437 14.0186 4.53722 14.0812 4.50715C14.1439 4.47708 14.2137 4.46531 14.2828 4.4732C14.3518 4.48109 14.4172 4.50832 14.4714 4.55175L18.4928 8.21156C18.5359 8.24613 18.5707 8.28993 18.5946 8.33974C18.6185 8.38954 18.6309 8.44408 18.6309 8.49932C18.6309 8.55457 18.6185 8.6091 18.5946 8.65891C18.5707 8.70872 18.5359 8.75252 18.4928 8.78709Z" fill="#223770"/>
</g>
<defs>
<clipPath id="clip0_2335_12891">
<rect width="19" height="15.1262" fill="white" transform="translate(19 16.063) rotate(180)"/>
</clipPath>
</defs>
</svg>
