<svg width="22" height="22" viewBox="0 0 22 22" fill="none" xmlns="http://www.w3.org/2000/svg">
<path d="M14.7106 8.82977L18.8319 12.951C19.0769 13.196 19.5056 13.0648 19.5756 12.7235C19.6894 12.1635 19.7506 11.586 19.7506 10.9998C19.7506 8.99602 19.0681 7.14977 17.9394 5.67977C17.7819 5.46977 17.4669 5.46102 17.2831 5.64477L14.7106 8.21727C14.5444 8.38352 14.5444 8.66352 14.7106 8.82977Z" fill="#30549E"/>
<path d="M13.1702 9.7575L11.6215 11.3063C11.4465 11.4813 11.4465 11.7525 11.6215 11.9275L16.714 17.02C16.889 17.195 17.169 17.195 17.3352 17.02C17.8777 16.4512 18.3415 15.8125 18.7177 15.1212C18.8052 14.955 18.7702 14.7363 18.639 14.605L13.7915 9.7575C13.6165 9.59125 13.3365 9.59125 13.1702 9.7575Z" fill="#30549E"/>
<path d="M10.0716 12.8553L8.53164 14.3953C8.35664 14.5703 8.35664 14.8415 8.53164 15.0165L12.8366 19.3303C12.9504 19.444 13.1166 19.4878 13.2654 19.444C14.0791 19.2253 14.8491 18.8928 15.5491 18.4553C15.7854 18.3065 15.8204 17.974 15.6191 17.7728L10.6929 12.8465C10.5179 12.689 10.2379 12.689 10.0716 12.8553Z" fill="#30549E"/>
<path d="M16.3192 4.06096C14.5867 2.72221 12.338 2.02221 9.92297 2.31096C5.97672 2.78346 2.78297 5.98596 2.31047 9.92346C2.02172 12.3385 2.72172 14.5785 4.06047 16.3197C4.21797 16.5297 4.53297 16.5385 4.71672 16.3547L16.3542 4.71721C16.538 4.53346 16.5292 4.21846 16.3192 4.06096Z" fill="#30549E"/>
<path d="M6.97428 15.9613L5.64428 17.2913C5.46053 17.4751 5.46928 17.7901 5.67928 17.9476C7.00053 18.9713 8.61928 19.6188 10.3955 19.7413C10.7718 19.7676 10.9555 19.3213 10.6843 19.0501L7.59553 15.9613C7.42928 15.7863 7.14928 15.7863 6.97428 15.9613Z" fill="#30549E"/>
</svg>
