<svg width="32" height="32" viewBox="0 0 32 32" fill="none" xmlns="http://www.w3.org/2000/svg">
<circle cx="16" cy="16" r="16" fill="#088D7D"/>
<g clip-path="url(#clip0_2324_13760)">
<path d="M9.19536 18.201C9.74666 18.6908 10.3722 19.0899 11.0487 19.3835L14.5854 17.1627C14.9459 16.9386 15.3714 16.8427 15.7932 16.8905C16.215 16.9383 16.6083 17.1269 16.9095 17.426L18.0987 18.6152C19.8812 17.301 20.9987 15.1985 20.9987 12.9168C20.9987 9.011 17.8212 5.8335 13.9154 5.8335C10.0095 5.8335 6.83203 9.011 6.83203 12.9168C6.83219 13.9143 7.04277 14.9005 7.45 15.811C7.85724 16.7216 8.45198 17.5359 9.19536 18.201ZM14.232 13.5418H13.5987C13.1561 13.5424 12.7293 13.377 12.4027 13.0783C12.0762 12.7795 11.8735 12.3692 11.8347 11.9282C11.796 11.4873 11.924 11.0479 12.1935 10.6968C12.463 10.3457 12.8544 10.1084 13.2904 10.0318V9.37516C13.2904 9.2094 13.3562 9.05043 13.4734 8.93322C13.5906 8.81601 13.7496 8.75016 13.9154 8.75016C14.0811 8.75016 14.2401 8.81601 14.3573 8.93322C14.4745 9.05043 14.5404 9.2094 14.5404 9.37516V10.0002H15.3737C15.5395 10.0002 15.6984 10.066 15.8156 10.1832C15.9328 10.3004 15.9987 10.4594 15.9987 10.6252C15.9987 10.7909 15.9328 10.9499 15.8156 11.0671C15.6984 11.1843 15.5395 11.2502 15.3737 11.2502H13.5987C13.4617 11.2502 13.3303 11.3046 13.2334 11.4015C13.1365 11.4984 13.082 11.6298 13.082 11.7668C13.082 12.0602 13.3137 12.2918 13.5987 12.2918H14.232C14.6746 12.2912 15.1014 12.4566 15.428 12.7554C15.7546 13.0541 15.9573 13.4645 15.996 13.9054C16.0347 14.3463 15.9067 14.7858 15.6372 15.1369C15.3677 15.488 14.9763 15.7253 14.5404 15.8018V16.4577C14.5404 16.6234 14.4745 16.7824 14.3573 16.8996C14.2401 17.0168 14.0811 17.0827 13.9154 17.0827C13.7496 17.0827 13.5906 17.0168 13.4734 16.8996C13.3562 16.7824 13.2904 16.6234 13.2904 16.4577V15.8335H12.457C12.2913 15.8335 12.1323 15.7676 12.0151 15.6504C11.8979 15.5332 11.832 15.3743 11.832 15.2085C11.832 15.0427 11.8979 14.8838 12.0151 14.7666C12.1323 14.6493 12.2913 14.5835 12.457 14.5835H14.232C14.3691 14.5835 14.5005 14.5291 14.5974 14.4322C14.6943 14.3353 14.7487 14.2039 14.7487 14.0668C14.7495 13.9984 14.7367 13.9304 14.7111 13.8669C14.6855 13.8034 14.6476 13.7456 14.5996 13.6968C14.5516 13.648 14.4944 13.6092 14.4313 13.5826C14.3682 13.556 14.3005 13.5422 14.232 13.5418Z" fill="white"/>
<path d="M25.1659 15H21.8325C21.6677 15 21.5067 15.0489 21.3696 15.1405C21.2326 15.2321 21.1259 15.3622 21.0628 15.5145C20.9997 15.6667 20.9832 15.8342 21.0154 15.9959C21.0475 16.1575 21.1269 16.306 21.2434 16.4225L22.3209 17.5L18.9159 20.905L16.1717 18.1608C16.0389 18.0281 15.8652 17.9442 15.6787 17.9225C15.4922 17.9009 15.3038 17.9429 15.1442 18.0417L6.39419 23.4583C6.21313 23.5777 6.08573 23.763 6.03906 23.9747C5.99239 24.1865 6.03012 24.4082 6.14424 24.5926C6.25836 24.777 6.43988 24.9097 6.65025 24.9624C6.86061 25.0151 7.08324 24.9838 7.27086 24.875L15.4592 19.8058L18.3259 22.6725C18.4032 22.75 18.495 22.8114 18.5961 22.8533C18.6972 22.8953 18.8056 22.9168 18.915 22.9168C19.0245 22.9168 19.1328 22.8953 19.2339 22.8533C19.335 22.8114 19.4269 22.75 19.5042 22.6725L23.4992 18.6783L24.5767 19.7558C24.6932 19.8723 24.8417 19.9517 25.0033 19.9838C25.165 20.016 25.3325 19.9995 25.4847 19.9364C25.637 19.8733 25.7671 19.7666 25.8587 19.6295C25.9503 19.4925 25.9992 19.3315 25.9992 19.1667V15.8333C25.9992 15.6123 25.9114 15.4004 25.7551 15.2441C25.5988 15.0878 25.3869 15 25.1659 15Z" fill="white"/>
</g>
<defs>
<clipPath id="clip0_2324_13760">
<rect width="20" height="20" fill="white" transform="translate(6 5)"/>
</clipPath>
</defs>
</svg>
