<svg width="20" height="14" viewBox="0 0 20 14" fill="none" xmlns="http://www.w3.org/2000/svg">
<path d="M1.24548 7.71061C1.08722 7.50757 1.00088 7.25771 1.00001 7.00028C0.999138 6.74285 1.08379 6.49242 1.24068 6.28831C2.45353 4.69798 5.73262 1 10.0019 1C14.2148 1 17.5251 4.69558 18.7548 6.28711C18.9137 6.49124 19 6.74255 19 7.00126C19 7.25997 18.9137 7.51128 18.7548 7.71541C17.5251 9.30695 14.2148 13.0025 10.0019 13.0025C5.78903 13.0025 2.47214 9.29854 1.24548 7.71061Z" stroke="#5F6F98" stroke-width="1.4403" stroke-miterlimit="10" stroke-linecap="square"/>
<path d="M10.0031 10.6029C11.9917 10.6029 13.6039 8.99077 13.6039 7.00212C13.6039 5.01348 11.9917 3.40137 10.0031 3.40137C8.01446 3.40137 6.40234 5.01348 6.40234 7.00212C6.40234 8.99077 8.01446 10.6029 10.0031 10.6029Z" stroke="#5F6F98" stroke-width="1.4403" stroke-miterlimit="10" stroke-linecap="square"/>
</svg>
