<svg width="33" height="32" viewBox="0 0 33 32" fill="none" xmlns="http://www.w3.org/2000/svg">
<circle cx="16.957" cy="16" r="16" fill="#DC6803"/>
<path fill-rule="evenodd" clip-rule="evenodd" d="M19.3383 13.3732C18.68 12.7149 17.7706 12.3078 16.7661 12.3078C15.7616 12.3078 14.8521 12.7149 14.1939 13.3732C13.5357 14.0314 13.1285 14.9408 13.1285 15.9453C13.1285 16.9499 13.5357 17.8592 14.1939 18.5175C14.8521 19.1757 15.7616 19.5829 16.7661 19.5829C17.7706 19.5829 18.68 19.1757 19.3383 18.5175C19.9965 17.8592 20.4036 16.9499 20.4036 15.9453C20.4036 14.9408 19.9965 14.0314 19.3383 13.3732ZM20.9488 6.27737C20.0112 5.86606 19.0186 5.5935 18.0025 5.46826V10.4088C18.3821 10.4974 18.7516 10.6248 19.1052 10.789C19.4531 10.9508 19.784 11.1471 20.0928 11.375L23.5582 7.90965C22.7723 7.2417 21.8933 6.69183 20.9488 6.27737ZM27.3627 12.5901C27.7253 13.659 27.9219 14.8058 27.9219 16C27.9219 17.1089 27.7523 18.177 27.4378 19.1797C27.1549 20.0816 26.7522 20.9415 26.2406 21.7363L22.6415 18.1372C22.7633 17.8342 22.8588 17.5213 22.9269 17.2019C23.0111 16.8068 23.0536 16.4039 23.0535 15.9999C23.0535 15.4934 22.9871 15.0003 22.8624 14.5291C22.7572 14.1313 22.6091 13.746 22.421 13.38L25.9559 9.84503C26.5564 10.6864 27.0304 11.6113 27.3627 12.5901ZM21.1666 25.6232C22.1799 25.1509 23.1125 24.5216 23.9298 23.7587L20.4823 20.3112C20.1349 20.6169 19.752 20.8797 19.3417 21.0937C18.9179 21.315 18.4679 21.4821 18.0025 21.5912V26.5317C19.0982 26.3964 20.1659 26.0899 21.1666 25.6232ZM8.85209 23.1557C7.12911 21.27 6.07812 18.7585 6.07812 16C6.07812 13.2414 7.12911 10.73 8.85209 8.84429C10.5152 7.02418 12.8037 5.78556 15.3771 5.46831V10.4089C14.1413 10.698 13.0589 11.3862 12.2735 12.3302C11.4449 13.3263 10.9465 14.6056 10.9465 16C10.9465 17.3944 11.4448 18.6737 12.2735 19.6697C13.0589 20.6137 14.1413 21.3019 15.3771 21.5911V26.5316C12.8037 26.2144 10.5152 24.9758 8.85209 23.1557ZM17.0638 17.7149V18.0989C17.0638 18.1859 17.0293 18.2694 16.9677 18.3309C16.9062 18.3925 16.8227 18.427 16.7357 18.427C16.6487 18.427 16.5652 18.3925 16.5037 18.3309C16.4422 18.2694 16.4076 18.1859 16.4076 18.0989V17.7174H16.0015C15.9144 17.7174 15.831 17.6828 15.7694 17.6213C15.7079 17.5597 15.6733 17.4763 15.6733 17.3892C15.6733 17.3022 15.7079 17.2187 15.7694 17.1572C15.831 17.0957 15.9144 17.0611 16.0015 17.0611H16.9922C17.0439 17.061 17.095 17.0507 17.1427 17.0308C17.1904 17.0109 17.2337 16.9818 17.2701 16.9451C17.3068 16.9087 17.3359 16.8654 17.3558 16.8177C17.3757 16.77 17.3859 16.7189 17.386 16.6672C17.3859 16.6155 17.3756 16.5644 17.3557 16.5167C17.3359 16.469 17.3067 16.4258 17.2701 16.3893C17.2337 16.3527 17.1904 16.3236 17.1427 16.3037C17.095 16.2838 17.0438 16.2735 16.9922 16.2734H16.5399C16.2508 16.2734 15.9882 16.1553 15.7981 15.9652C15.6079 15.775 15.4899 15.5124 15.4899 15.2233C15.4899 14.9342 15.6079 14.6716 15.7981 14.4814C15.9588 14.3207 16.1712 14.2115 16.4076 14.1816V13.7917C16.4076 13.7046 16.4422 13.6212 16.5037 13.5596C16.5652 13.4981 16.6487 13.4635 16.7357 13.4635C16.8227 13.4635 16.9062 13.4981 16.9677 13.5596C17.0293 13.6212 17.0638 13.7046 17.0638 13.7917V14.1732H17.5307C17.5738 14.1732 17.6164 14.1817 17.6562 14.1982C17.696 14.2147 17.7322 14.2389 17.7627 14.2693C17.7932 14.2998 17.8173 14.336 17.8338 14.3758C17.8503 14.4156 17.8588 14.4583 17.8588 14.5014C17.8588 14.5444 17.8503 14.5871 17.8338 14.6269C17.8173 14.6667 17.7932 14.7029 17.7627 14.7334C17.7322 14.7638 17.696 14.788 17.6562 14.8045C17.6164 14.821 17.5738 14.8295 17.5307 14.8295H16.54C16.4883 14.8296 16.4372 14.8399 16.3895 14.8598C16.3418 14.8796 16.2985 14.9087 16.2621 14.9454C16.1906 15.0169 16.1462 15.1154 16.1462 15.2233C16.1462 15.3313 16.1906 15.4297 16.2621 15.5012C16.2985 15.5379 16.3418 15.567 16.3895 15.5869C16.4372 15.6068 16.4883 15.6171 16.54 15.6172H16.9922C17.2813 15.6172 17.5439 15.7352 17.7341 15.9254C17.9243 16.1155 18.0423 16.3781 18.0423 16.6672C18.0423 16.9563 17.9243 17.2189 17.7341 17.4091C17.5598 17.5835 17.3246 17.6972 17.0638 17.7149Z" fill="white"/>
</svg>
