<svg width="10" height="12" viewBox="0 0 10 12" fill="none" xmlns="http://www.w3.org/2000/svg">
<path d="M8.99625 0.6C8.58375 0.6525 8.0625 0.73125 7.5075 0.73125C6.64125 0.73125 5.8575 0.5175 5.0625 0.34875C4.25625 0.17625 3.42375 0 2.5425 0C0.78375 0 0.1875 0.37875 0.1275 0.42L0 0.51V0.6075V6.67125V12H0.6V6.62625C0.825 6.5325 1.4175 6.3675 2.54625 6.3675C3.36375 6.3675 4.12875 6.67875 4.9425 6.855C5.7675 7.03125 6.6225 7.215 7.54875 7.215C8.1 7.215 8.5875 7.14 9 7.09125C9.225 7.065 9.42375 7.03875 9.6 7.00875V1.125V0.50625C9.42375 0.54 9.22125 0.57 8.99625 0.6Z" fill="white"/>
</svg>
