<svg width="29" height="30" viewBox="0 0 29 30" fill="none" xmlns="http://www.w3.org/2000/svg">
<path d="M18.125 8.4751L10.875 8.4751L10.875 12.8251L18.125 12.8251V8.4751Z" stroke="white" stroke-width="1.74" stroke-miterlimit="10" stroke-linecap="square"/>
<path d="M12.3262 8.475L12.3262 6.3C12.3262 5.09867 13.2998 4.125 14.5012 4.125C15.7025 4.125 16.6762 5.09867 16.6762 6.3V8.475" stroke="white" stroke-width="1.74" stroke-miterlimit="10" stroke-linecap="square"/>
<path d="M21.0246 19.35C22.2258 19.35 23.1996 18.3762 23.1996 17.175C23.1996 15.9738 22.2258 15 21.0246 15C19.8234 15 18.8496 15.9738 18.8496 17.175C18.8496 18.3762 19.8234 19.35 21.0246 19.35Z" stroke="white" stroke-width="1.74" stroke-miterlimit="10" stroke-linecap="square"/>
<path d="M7.97383 19.35C9.17505 19.35 10.1488 18.3762 10.1488 17.175C10.1488 15.9738 9.17505 15 7.97383 15C6.77261 15 5.79883 15.9738 5.79883 17.175C5.79883 18.3762 6.77261 19.35 7.97383 19.35Z" stroke="white" stroke-width="1.74" stroke-miterlimit="10" stroke-linecap="square"/>
<path d="M12.325 25.8749L12.325 23.7122C12.325 23.1975 12.0553 22.7241 11.6123 22.4616C10.9069 22.0447 9.68455 21.5249 7.975 21.5249C6.2437 21.5249 5.0286 22.0418 4.33115 22.4587C3.8918 22.7212 3.625 23.1931 3.625 23.705L3.625 25.8749H12.325Z" stroke="white" stroke-width="1.74" stroke-miterlimit="10" stroke-linecap="square"/>
<path d="M25.3738 25.8749V23.7122C25.3738 23.1975 25.1041 22.7241 24.6612 22.4616C23.9557 22.0447 22.7334 21.5249 21.0238 21.5249C19.2925 21.5249 18.0774 22.0418 17.38 22.4587C16.9406 22.7212 16.6738 23.1931 16.6738 23.705V25.8749H25.3738Z" stroke="white" stroke-width="1.74" stroke-miterlimit="10" stroke-linecap="square"/>
</svg>
