<svg width="20" height="20" viewBox="0 0 20 20" fill="none" xmlns="http://www.w3.org/2000/svg">
<path d="M19.7888 18.7466L15.1489 14.1067H15.0989C16.5291 12.4204 17.2518 10.2465 17.1159 8.03959C16.98 5.83269 15.996 3.76383 14.3698 2.26576C12.7436 0.767697 10.6011 -0.0435211 8.39047 0.00180181C6.17986 0.0471247 4.0724 0.945478 2.50894 2.50894C0.945478 4.0724 0.0471247 6.17986 0.00180181 8.39047C-0.0435211 10.6011 0.767697 12.7436 2.26576 14.3698C3.76383 15.996 5.83269 16.98 8.03958 17.1159C10.2465 17.2518 12.4204 16.5291 14.1067 15.0989C14.1067 15.0989 14.1067 15.1346 14.1067 15.1489L18.7466 19.7888C18.813 19.8558 18.892 19.9089 18.9789 19.9451C19.0659 19.9813 19.1592 20 19.2535 20C19.3477 20 19.441 19.9813 19.528 19.9451C19.615 19.9089 19.6939 19.8558 19.7603 19.7888C19.8335 19.7241 19.8926 19.6449 19.9339 19.5563C19.9753 19.4678 19.998 19.3717 20.0007 19.2739C20.0033 19.1762 19.9859 19.079 19.9495 18.9883C19.913 18.8976 19.8584 18.8154 19.7888 18.7466ZM8.57446 15.6843C7.16262 15.6843 5.78249 15.2656 4.60859 14.4812C3.43469 13.6969 2.51974 12.582 1.97946 11.2776C1.43917 9.97327 1.29781 8.53799 1.57324 7.15328C1.84868 5.76857 2.52854 4.49663 3.52686 3.49831C4.52518 2.49999 5.79712 1.82012 7.18183 1.54469C8.56654 1.26925 10.0018 1.41062 11.3062 1.9509C12.6106 2.49119 13.7254 3.40613 14.5098 4.58003C15.2942 5.75393 15.7128 7.13407 15.7128 8.5459C15.7128 9.48333 15.5282 10.4116 15.1695 11.2776C14.8107 12.1437 14.2849 12.9306 13.6221 13.5935C12.9592 14.2564 12.1723 14.7822 11.3062 15.1409C10.4401 15.4996 9.51188 15.6843 8.57446 15.6843Z" fill="#5F6F98"/>
</svg>
