<svg width="33" height="32" viewBox="0 0 33 32" fill="none" xmlns="http://www.w3.org/2000/svg">
<circle cx="16.4785" cy="16" r="16" fill="#30549E"/>
<path d="M22.1035 10.9999H24.8598L21.4785 7.61865V10.3749C21.4785 10.5407 21.5444 10.6996 21.6616 10.8168C21.7788 10.9341 21.9378 10.9999 22.1035 10.9999Z" fill="white"/>
<path d="M22.1035 12.25C21.6062 12.25 21.1293 12.0525 20.7777 11.7008C20.4261 11.3492 20.2285 10.8723 20.2285 10.375V7.25H13.3535C12.8562 7.25 12.3793 7.44754 12.0277 7.79917C11.6761 8.15081 11.4785 8.62772 11.4785 9.125V13.625C12.8696 13.3405 14.3162 13.5381 15.58 14.1854C16.8438 14.8327 17.8495 15.891 18.4316 17.1861C19.0136 18.4813 19.1374 19.936 18.7824 21.3108C18.4274 22.6856 17.6148 23.8986 16.4785 24.75H23.3535C23.8508 24.75 24.3277 24.5525 24.6793 24.2008C25.031 23.8492 25.2285 23.3723 25.2285 22.875V12.25H22.1035ZM18.3535 12.25H14.6035C14.4378 12.25 14.2788 12.1842 14.1616 12.0669C14.0444 11.9497 13.9785 11.7908 13.9785 11.625C13.9785 11.4592 14.0444 11.3003 14.1616 11.1831C14.2788 11.0658 14.4378 11 14.6035 11H18.3535C18.5193 11 18.6782 11.0658 18.7955 11.1831C18.9127 11.3003 18.9785 11.4592 18.9785 11.625C18.9785 11.7908 18.9127 11.9497 18.7955 12.0669C18.6782 12.1842 18.5193 12.25 18.3535 12.25ZM22.1035 21.625H20.8535C20.6878 21.625 20.5288 21.5592 20.4116 21.4419C20.2944 21.3247 20.2285 21.1658 20.2285 21C20.2285 20.8342 20.2944 20.6753 20.4116 20.5581C20.5288 20.4408 20.6878 20.375 20.8535 20.375H22.1035C22.2693 20.375 22.4282 20.4408 22.5455 20.5581C22.6627 20.6753 22.7285 20.8342 22.7285 21C22.7285 21.1658 22.6627 21.3247 22.5455 21.4419C22.4282 21.5592 22.2693 21.625 22.1035 21.625ZM22.1035 18.5H20.8535C20.6878 18.5 20.5288 18.4342 20.4116 18.3169C20.2944 18.1997 20.2285 18.0408 20.2285 17.875C20.2285 17.7092 20.2944 17.5503 20.4116 17.4331C20.5288 17.3158 20.6878 17.25 20.8535 17.25H22.1035C22.2693 17.25 22.4282 17.3158 22.5455 17.4331C22.6627 17.5503 22.7285 17.7092 22.7285 17.875C22.7285 18.0408 22.6627 18.1997 22.5455 18.3169C22.4282 18.4342 22.2693 18.5 22.1035 18.5ZM22.1035 15.375H19.6035C19.4378 15.375 19.2788 15.3092 19.1616 15.1919C19.0444 15.0747 18.9785 14.9158 18.9785 14.75C18.9785 14.5842 19.0444 14.4253 19.1616 14.3081C19.2788 14.1908 19.4378 14.125 19.6035 14.125H22.1035C22.2693 14.125 22.4282 14.1908 22.5455 14.3081C22.6627 14.4253 22.7285 14.5842 22.7285 14.75C22.7285 14.9158 22.6627 15.0747 22.5455 15.1919C22.4282 15.3092 22.2693 15.375 22.1035 15.375Z" fill="white"/>
<path d="M12.7285 14.75C11.7396 14.75 10.7729 15.0432 9.95067 15.5927C9.12842 16.1421 8.48756 16.923 8.10912 17.8366C7.73068 18.7502 7.63167 19.7555 7.82459 20.7255C8.01752 21.6954 8.49372 22.5863 9.19298 23.2855C9.89225 23.9848 10.7832 24.461 11.7531 24.6539C12.723 24.8469 13.7283 24.7478 14.6419 24.3694C15.5556 23.991 16.3365 23.3501 16.8859 22.5279C17.4353 21.7056 17.7285 20.7389 17.7285 19.75C17.7285 18.4239 17.2017 17.1521 16.2641 16.2145C15.3264 15.2768 14.0546 14.75 12.7285 14.75ZM11.4785 17.875C11.6021 17.875 11.723 17.9117 11.8257 17.9803C11.9285 18.049 12.0086 18.1466 12.0559 18.2608C12.1032 18.375 12.1156 18.5007 12.0915 18.6219C12.0674 18.7432 12.0079 18.8545 11.9205 18.9419C11.8331 19.0293 11.7217 19.0889 11.6004 19.113C11.4792 19.1371 11.3535 19.1247 11.2393 19.0774C11.1251 19.0301 11.0275 18.95 10.9588 18.8472C10.8902 18.7445 10.8535 18.6236 10.8535 18.5C10.8535 18.3342 10.9194 18.1753 11.0366 18.0581C11.1538 17.9408 11.3128 17.875 11.4785 17.875ZM13.9785 21.625C13.8549 21.625 13.7341 21.5883 13.6313 21.5197C13.5285 21.451 13.4484 21.3534 13.4011 21.2392C13.3538 21.125 13.3414 20.9993 13.3655 20.8781C13.3896 20.7568 13.4492 20.6455 13.5366 20.5581C13.624 20.4707 13.7353 20.4111 13.8566 20.387C13.9778 20.3629 14.1035 20.3753 14.2177 20.4226C14.3319 20.4699 14.4295 20.55 14.4982 20.6528C14.5669 20.7555 14.6035 20.8764 14.6035 21C14.6035 21.1658 14.5377 21.3247 14.4205 21.4419C14.3032 21.5592 14.1443 21.625 13.9785 21.625ZM14.4223 18.9437L11.9223 21.4437C11.8642 21.5023 11.795 21.5488 11.7189 21.5806C11.6427 21.6123 11.561 21.6286 11.4785 21.6286C11.396 21.6286 11.3143 21.6123 11.2382 21.5806C11.162 21.5488 11.0929 21.5023 11.0348 21.4437C10.9762 21.3856 10.9297 21.3165 10.898 21.2404C10.8662 21.1642 10.8499 21.0825 10.8499 21C10.8499 20.9175 10.8662 20.8358 10.898 20.7596C10.9297 20.6835 10.9762 20.6144 11.0348 20.5563L13.5348 18.0563C13.6525 17.9386 13.8121 17.8724 13.9785 17.8724C14.145 17.8724 14.3046 17.9386 14.4223 18.0563C14.54 18.1739 14.6061 18.3336 14.6061 18.5C14.6061 18.6664 14.54 18.8261 14.4223 18.9437Z" fill="white"/>
</svg>
