<svg width="173" height="22" viewBox="0 0 173 22" fill="none" xmlns="http://www.w3.org/2000/svg">
<path d="M22.1303 15.2909L20.5014 12.4654L18.8695 9.64289L17.2405 6.82037L15.6116 3.99488L13.9797 1.17236H10.7188L12.3507 3.99488L13.9797 6.82037L15.6116 9.64289L17.2405 12.4654L18.8695 15.2909H15.6116H12.3507H9.08988L7.46094 18.1134H10.7188H13.9797H17.2405H20.5014H23.7623L22.1303 15.2909Z" fill="url(#paint0_linear_2307_13518)"/>
<path d="M20.5016 18.1158H17.2407H13.9799H10.719H7.46112L9.09007 15.2933L10.719 12.4678L12.3509 9.64528L10.719 6.82275L9.09007 9.64528L7.46112 12.4678L5.82921 15.2933L4.20027 18.1158L2.56836 20.9383H5.82921H9.09007H12.3509H15.6118H18.8697H22.1305L23.7624 18.1158H20.5016Z" fill="url(#paint1_linear_2307_13518)"/>
<path d="M17.2408 12.4654L15.6118 9.64289L13.9799 6.82037L12.351 3.99488L10.7191 1.17236L9.09011 3.99488L7.46116 6.82037L5.82926 9.64289L4.20031 12.4654L2.5684 15.2909L0.939453 18.1134L2.5684 20.9359L4.20031 18.1134L5.82926 15.2909L7.46116 12.4654L9.09011 9.64289L10.7191 6.82037L12.351 9.64289L13.9799 12.4654L15.6118 15.2909H18.8697L17.2408 12.4654Z" fill="url(#paint2_linear_2307_13518)"/>
<path d="M39.6789 0.687988L48.8898 20.9462H46.0969L43.8342 15.9557H35.5562L33.3171 20.9462H30.5449L39.6789 0.687988ZM39.67 6.77433L36.5483 13.7314H42.8242L39.67 6.77433Z" fill="#24356E"/>
<path d="M49.0488 8.31006H51.7144V15.43C51.7144 17.6247 52.6799 18.7235 54.608 18.7235C55.4669 18.7235 56.1451 18.4303 56.6456 17.8438C57.1462 17.2574 57.395 16.4518 57.395 15.433V8.31006H60.0279V15.8595C60.0279 17.441 59.5126 18.7442 58.4819 19.763C57.4512 20.7848 56.1333 21.2942 54.531 21.2942C52.8991 21.2942 51.5752 20.7848 50.5652 19.763C49.5553 18.7412 49.0488 17.4085 49.0488 15.7677V8.31006Z" fill="#24356E"/>
<path d="M72.2732 1.06885H74.9062V20.945H72.3028V18.312C71.0441 20.3023 69.4003 21.2974 67.3656 21.2974C65.7189 21.2974 64.3091 20.6399 63.1333 19.3219C61.9575 18.004 61.3711 16.4224 61.3711 14.5743C61.3711 12.7677 61.9694 11.2127 63.1659 9.91255C64.3624 8.60939 65.787 7.96078 67.4456 7.96078C68.4378 7.96078 69.3618 8.23622 70.2207 8.7871C71.0796 9.33798 71.7638 10.0577 72.2762 10.9462V1.06885H72.2732ZM72.5812 14.6039C72.5812 13.4696 72.1666 12.4892 71.3373 11.657C70.508 10.8248 69.5218 10.4101 68.3756 10.4101C67.1879 10.4101 66.1839 10.8159 65.3605 11.6274C64.5372 12.4389 64.1255 13.4311 64.1255 14.6069C64.1255 15.7294 64.5461 16.7127 65.3842 17.5538C66.2224 18.3949 67.1998 18.8184 68.3134 18.8184C69.4981 18.8184 70.508 18.4097 71.3343 17.5923C72.1666 16.7749 72.5812 15.7797 72.5812 14.6039Z" fill="#24356E"/>
<path d="M76.9219 4.16361C76.9219 3.61273 77.1262 3.13589 77.5349 2.7331C77.9437 2.3303 78.4294 2.12891 78.9892 2.12891C79.54 2.12891 80.0169 2.3303 80.4197 2.7331C80.8225 3.13589 81.0239 3.61273 81.0239 4.16361C81.0239 4.72634 80.8225 5.20614 80.4197 5.60301C80.0169 5.99988 79.54 6.20127 78.9892 6.20127C78.4264 6.20127 77.9437 6.00284 77.5349 5.60301C77.1262 5.20614 76.9219 4.72634 76.9219 4.16361ZM77.6712 8.31298H80.3042V20.9447H77.6712V8.31298Z" fill="#24356E"/>
<path d="M83.5774 4.63721H86.2429V8.3127H88.8759V10.7472H86.2429V20.9444H83.5774V10.7472H81.4805V8.28309H83.5774V4.63721Z" fill="#24356E"/>
<path d="M88.9434 14.5755C88.9434 12.8517 89.6246 11.3176 90.9869 9.97296C92.3493 8.63129 93.9131 7.95898 95.6813 7.95898C97.4998 7.95898 99.0843 8.61945 100.444 9.94334C101.803 11.2672 102.481 12.8103 102.481 14.5755C102.481 16.3525 101.815 17.9163 100.482 19.2698C99.1495 20.6233 97.6123 21.2986 95.8649 21.2986C93.9961 21.2986 92.376 20.6292 91.0018 19.2935C89.6305 17.9548 88.9434 16.3821 88.9434 14.5755ZM99.9077 14.5814C99.9077 13.5063 99.4989 12.5733 98.6815 11.7826C97.8641 10.9888 96.8956 10.5949 95.7731 10.5949C94.621 10.5949 93.6258 10.9977 92.7936 11.8003C91.9614 12.603 91.5467 13.5626 91.5467 14.6762C91.5467 15.7394 91.9673 16.6724 92.8114 17.4691C93.6525 18.2658 94.6417 18.6656 95.7731 18.6656C96.8749 18.6656 97.8404 18.2569 98.6667 17.4395C99.496 16.6191 99.9077 15.6654 99.9077 14.5814Z" fill="#24356E"/>
<path d="M106.732 8.30847V10.9118C107.325 9.86929 107.902 9.11702 108.471 8.65499C109.036 8.19 109.774 7.95898 110.683 7.95898C110.938 7.95898 111.305 8.02118 111.785 8.14261L110.973 10.8082C110.464 10.7075 110.126 10.6542 109.964 10.6542C109.066 10.6542 108.314 10.9681 107.707 11.596C107.1 12.2239 106.794 13.0087 106.794 13.9476V20.9461H104.129V8.30847H106.732Z" fill="#24356E"/>
<path d="M120.261 9.81598L118.484 11.3768C118.025 11.051 117.625 10.8022 117.291 10.6334C116.953 10.4646 116.556 10.3817 116.097 10.3817C115.016 10.3817 114.474 10.7785 114.474 11.5752C114.474 12.1469 115.161 12.7007 116.532 13.2397C117.904 13.7788 118.893 14.3682 119.494 15.0108C120.095 15.6535 120.397 16.4295 120.397 17.3358C120.397 18.3961 119.962 19.3231 119.094 20.1109C118.227 20.9017 117.205 21.2956 116.032 21.2956C114.246 21.2956 112.78 20.4693 111.637 18.8137L113.734 17.8037C114.468 18.5175 115.235 18.8759 116.032 18.8759C116.583 18.8759 117.066 18.7248 117.48 18.4257C117.895 18.1236 118.099 17.7741 118.099 17.3773C118.099 16.6724 117.374 16.0386 115.925 15.4758C114.474 14.9131 113.473 14.3445 112.916 13.7669C112.359 13.1894 112.081 12.4786 112.081 11.6315C112.081 10.5801 112.478 9.7064 113.269 9.00743C114.059 8.30847 115.052 7.95898 116.248 7.95898C117.445 7.96195 118.78 8.58094 120.261 9.81598Z" fill="#24356E"/>
<path d="M121.631 1.05371H126.361C130.107 1.05371 132.894 2.04293 134.722 4.02432C136.549 6.00571 137.461 8.2655 137.461 10.8067C137.461 13.3686 136.516 15.6343 134.63 17.6068C132.74 19.5763 129.995 20.5626 126.393 20.5626H121.631V1.05371ZM124.296 3.65706V17.9266H124.45C126.432 17.9266 127.922 17.8378 128.923 17.6571C129.924 17.4794 130.871 17.0885 131.772 16.4872C132.669 15.886 133.386 15.0864 133.916 14.0912C134.446 13.0961 134.713 12.0002 134.713 10.8067C134.713 9.30507 134.289 7.9486 133.442 6.73429C132.595 5.51999 131.582 4.70255 130.403 4.28495C129.225 3.86735 127.64 3.65706 125.65 3.65706H124.296Z" fill="#24356E"/>
<path d="M151.33 14.7569H140.55C140.784 16.0541 141.317 16.9989 142.149 17.5972C142.981 18.1954 143.887 18.4916 144.868 18.4916C146.378 18.4916 147.646 17.8637 148.665 16.608L150.611 18.077C149.15 19.9666 147.196 20.9113 144.746 20.9113C142.869 20.9113 141.296 20.2686 140.031 18.9803C138.767 17.6919 138.133 16.0956 138.133 14.1882C138.133 12.4023 138.773 10.8533 140.055 9.54129C141.337 8.22925 142.901 7.57471 144.749 7.57471C146.568 7.57471 148.123 8.2411 149.42 9.57387C150.714 10.9066 151.351 12.6333 151.33 14.7569ZM140.825 12.6274H148.543C147.684 10.8918 146.42 10.0241 144.746 10.0241C142.919 10.0241 141.613 10.8918 140.825 12.6274Z" fill="#24356E"/>
<path d="M160.451 9.4278L158.674 10.9886C158.215 10.6628 157.815 10.4141 157.48 10.2452C157.142 10.0764 156.746 9.99349 156.287 9.99349C155.205 9.99349 154.663 10.3904 154.663 11.1871C154.663 11.7587 155.351 12.3125 156.722 12.8516C158.093 13.3906 159.082 13.98 159.684 14.6227C160.285 15.2654 160.587 16.0413 160.587 16.9476C160.587 18.0079 160.152 18.9349 159.284 19.7227C158.416 20.5135 157.394 20.9074 156.221 20.9074C154.435 20.9074 152.969 20.0811 151.826 18.4255L153.923 17.4156C154.658 18.1293 155.425 18.4877 156.221 18.4877C156.772 18.4877 157.255 18.3367 157.67 18.0375C158.084 17.7354 158.289 17.3859 158.289 16.9891C158.289 16.2842 157.563 15.6504 156.115 15.0877C154.663 14.5249 153.662 13.9563 153.106 13.3787C152.549 12.8012 152.27 12.0904 152.27 11.2433C152.27 10.1919 152.667 9.31822 153.458 8.61925C154.249 7.92028 155.241 7.5708 156.438 7.5708C157.634 7.57376 158.973 8.19276 160.451 9.4278Z" fill="#24356E"/>
<path d="M161.547 0.687988H164.212V13.4737L169.431 7.93236H172.878L167.429 13.767L172.941 20.5611H169.644L164.212 13.8854V20.5611H161.547V0.687988Z" fill="#24356E"/>
<defs>
<linearGradient id="paint0_linear_2307_13518" x1="18.1043" y1="22.6499" x2="10.2516" y2="8.36449" gradientUnits="userSpaceOnUse">
<stop offset="0.1844" stop-color="#EDE80A"/>
<stop offset="1" stop-color="#7CC468"/>
</linearGradient>
<linearGradient id="paint1_linear_2307_13518" x1="16.0578" y1="23.2964" x2="3.15629" y2="6.48435" gradientUnits="userSpaceOnUse">
<stop stop-color="#3ABDAD"/>
<stop offset="0.4143" stop-color="#3E62AD"/>
<stop offset="1" stop-color="#57BF9B"/>
</linearGradient>
<linearGradient id="paint2_linear_2307_13518" x1="6.23264" y1="24.5573" x2="13.8269" y2="8.31325" gradientUnits="userSpaceOnUse">
<stop offset="0.3877" stop-color="#2D51A4"/>
<stop offset="1" stop-color="#57BF9B"/>
</linearGradient>
</defs>
</svg>
