<svg width="21" height="21" viewBox="0 0 21 21" fill="none" xmlns="http://www.w3.org/2000/svg">
<path d="M8.57963 17.6707C9.16724 18.1894 9.93911 18.5041 10.7845 18.5041C11.6299 18.5041 12.4017 18.1894 12.9893 17.6707M15.7845 6.8374C15.7845 5.51132 15.2577 4.23955 14.32 3.30187C13.3823 2.36419 12.1106 1.8374 10.7845 1.8374C9.4584 1.8374 8.18663 2.36419 7.24895 3.30187C6.31126 4.23955 5.78448 5.51132 5.78448 6.8374C5.78448 9.41256 5.13487 11.1757 4.4092 12.3419C3.79709 13.3256 3.49103 13.8175 3.50225 13.9547C3.51468 14.1066 3.54686 14.1646 3.66929 14.2554C3.77986 14.3374 4.27831 14.3374 5.27519 14.3374H16.2938C17.2907 14.3374 17.7891 14.3374 17.8997 14.2554C18.0221 14.1646 18.0543 14.1066 18.0667 13.9547C18.0779 13.8175 17.7719 13.3256 17.1598 12.3419C16.4341 11.1757 15.7845 9.41256 15.7845 6.8374Z" stroke="#667085" stroke-width="1.66667" stroke-linecap="round" stroke-linejoin="round"/>
</svg>
